<svg width="20" height="31" viewBox="0 0 20 31" fill="none" xmlns="http://www.w3.org/2000/svg">
<path d="M13.0394 0L12.6797 0.40064L12.1587 0.88064L12.0397 1.04064L11.959 1.20064L9.67936 5.52064L9.47968 5.63968H0V15.2397H4.59904L0.158721 23.7197L0 24V30.72H6.95936L7.31904 30.3194L7.83872 29.8394L7.95904 29.6794L8.03968 29.5194L10.3194 25.1994L10.519 25.0803H20V15.4803H15.3997L19.8387 7.00032L19.9987 6.72V0H13.0394ZM14.1197 2.56H17.4387V6.11968L12.3994 15.68L12.0397 16.4403L12.5594 17.0803L12.9997 17.6L13.3594 18.0403H17.44V22.5203H9.71776L9.35808 22.7597L8.59776 23.2397L8.3584 23.4406L8.1984 23.7197L5.87776 28.16H2.55744V24.6003L7.5584 15.04L7.95776 14.3194L7.43808 13.641L6.99776 13.12L6.63808 12.6797H2.55744V8.19968H10.2784L10.5984 7.96032L11.3574 7.48032L11.639 7.28064L11.7978 6.99904L14.1197 2.56Z" fill="white"/>
</svg>
