<svg width="30" height="30" viewBox="0 0 30 30" fill="none" xmlns="http://www.w3.org/2000/svg">
<path d="M27 15C27 18.1826 25.7357 21.2348 23.4853 23.4853C21.2348 25.7357 18.1826 27 15 27C11.8174 27 8.76515 25.7357 6.51472 23.4853C4.26428 21.2348 3 18.1826 3 15C3 11.8174 4.26428 8.76515 6.51472 6.51472C8.76515 4.26428 11.8174 3 15 3C18.1826 3 21.2348 4.26428 23.4853 6.51472C25.7357 8.76515 27 11.8174 27 15ZM15 30C23.2845 30 30 23.2845 30 15C30 6.7155 23.2845 0 15 0C6.7155 0 0 6.7155 0 15C0 23.2845 6.7155 30 15 30ZM15.537 11.073C14.079 11.68 11.1635 12.9365 6.7905 14.8425C6.0795 15.1245 5.7075 15.4005 5.6745 15.6705C5.6175 16.1265 6.189 16.3065 6.9675 16.551L7.2945 16.656C8.0595 16.905 9.0915 17.196 9.627 17.208C10.113 17.218 10.655 17.018 11.253 16.608C15.339 13.848 17.448 12.4535 17.58 12.4245C17.6745 12.4035 17.8035 12.3765 17.8905 12.4545C17.979 12.5325 17.97 12.6795 17.961 12.72C17.904 12.9615 15.66 15.048 14.499 16.1265C14.155 16.4505 13.8135 16.777 13.4745 17.106C12.7635 17.7915 12.2295 18.306 13.5045 19.146C14.796 19.998 16.0995 20.847 17.3595 21.7455C17.9805 22.1895 18.5385 22.5855 19.2285 22.524C19.629 22.4865 20.043 22.11 20.253 20.985C20.751 18.33 21.7275 12.573 21.9525 10.2C21.9656 10.0032 21.957 9.80548 21.927 9.6105C21.9093 9.45357 21.8333 9.30903 21.714 9.2055C21.534 9.0585 21.2565 9.0285 21.1335 9.03C20.5695 9.0405 19.704 9.3405 15.5385 11.073" fill="white"/>
</svg>
